HIERARCHY
ROOT joint_0
{
	OFFSET -212.520721 120.562408 434.227997
	CHANNELS 6 Xposition Yposition Zposition Zrotation Yrotation Xrotation 
	JOINT joint_1
	{
		OFFSET 0.119549 -28.870838 -4.186779
		CHANNELS 3 Zrotation Yrotation Xrotation
		JOINT joint_2
		{
			OFFSET 0.103609 1.856164 10.547157
			CHANNELS 3 Zrotation Yrotation Xrotation
			JOINT joint_3
			{
				OFFSET 43.449646 -0.000025 -0.000009
				CHANNELS 3 Zrotation Yrotation Xrotation
				JOINT joint_4
				{
					OFFSET 42.301064 0.000007 -0.000009
					CHANNELS 3 Zrotation Yrotation Xrotation
					JOINT joint_5
					{
						OFFSET 17.319788 -0.000002 -0.000001
						CHANNELS 3 Zrotation Yrotation Xrotation
						End Site
						{
							OFFSET 0.000000 0.000000 0.000000
						}
					}
				}
			}
		}
		JOINT joint_6
		{
			OFFSET 0.103578 1.855966 -10.546992
			CHANNELS 3 Zrotation Yrotation Xrotation
			JOINT joint_7
			{
				OFFSET 43.445827 -0.000024 0.000008
				CHANNELS 3 Zrotation Yrotation Xrotation
				JOINT joint_8
				{
					OFFSET 42.313103 0.000007 0.000010
					CHANNELS 3 Zrotation Yrotation Xrotation
					JOINT joint_9
					{
						OFFSET 17.319389 -0.000002 0.000002
						CHANNELS 3 Zrotation Yrotation Xrotation
						End Site
						{
							OFFSET 0.000000 0.000000 0.000000
						}
					}
				}
			}
		}
		JOINT joint_10
		{
			OFFSET 6.902072 -2.607111 0.000001
			CHANNELS 3 Zrotation Yrotation Xrotation
			JOINT joint_11
			{
				OFFSET 12.585372 0.000007 0.000001
				CHANNELS 3 Zrotation Yrotation Xrotation
				JOINT joint_12
				{
					OFFSET 12.328756 -0.000005 0.000000
					CHANNELS 3 Zrotation Yrotation Xrotation
					JOINT joint_13
					{
						OFFSET 25.816053 -0.000004 0.000000
						CHANNELS 3 Zrotation Yrotation Xrotation
						JOINT joint_14
						{
							OFFSET 11.748008 0.000002 -0.000000
							CHANNELS 3 Zrotation Yrotation Xrotation
							End Site
							{
								OFFSET 0.000000 0.000000 0.000000
							}
						}
					}
					JOINT joint_15
					{
						OFFSET 19.731825 -1.479966 6.001402
						CHANNELS 3 Zrotation Yrotation Xrotation
						JOINT joint_16
						{
							OFFSET 11.301182 -0.000014 -0.000008
							CHANNELS 3 Zrotation Yrotation Xrotation
							JOINT joint_17
							{
								OFFSET 32.960190 0.000014 0.000011
								CHANNELS 3 Zrotation Yrotation Xrotation
								JOINT joint_18
								{
									OFFSET 25.219484 0.000086 -0.000204
									CHANNELS 3 Zrotation Yrotation Xrotation
									End Site
									{
										OFFSET 0.000000 0.000000 0.000000
									}
								}
							}
						}
					}
					JOINT joint_19
					{
						OFFSET 19.732548 -1.479957 -6.001790
						CHANNELS 3 Zrotation Yrotation Xrotation
						JOINT joint_20
						{
							OFFSET 11.303510 -0.000015 0.000005
							CHANNELS 3 Zrotation Yrotation Xrotation
							JOINT joint_21
							{
								OFFSET 32.942387 0.000012 -0.000010
								CHANNELS 3 Zrotation Yrotation Xrotation
								JOINT joint_22
								{
									OFFSET 25.217804 0.000083 0.000194
									CHANNELS 3 Zrotation Yrotation Xrotation
									End Site
									{
										OFFSET 0.000000 0.000000 0.000000
									}
								}
							}
						}
					}
				}
			}
		}
	}
}
MOTION
Frames: 9
Frame Time: 0.016667
-212.520721 120.562408 434.227997 0.000000 -8.332734 0.000000 91.164421 -6.353651 89.711090 170.402481 -4.100200 149.451736 -2.518927 3.382463 -55.063980 -5.632528 -0.411572 82.983765 0.000009 0.003100 21.483063 -169.529282 6.362100 149.472641 1.490175 -3.996351 -55.974724 4.656418 -0.289300 84.216972 -0.000010 -0.003100 21.482368 -0.004897 -0.020903 8.494015 -0.473825 0.442094 6.194093 0.421319 -0.088097 6.407705 0.432680 -0.494624 3.314094 -0.998112 2.459424 -7.850538 2.816330 -79.454819 175.826309 23.950434 48.150394 -6.341562 2.119172 -12.273941 -53.696682 21.556675 -10.317630 4.733678 6.596843 79.151054 -174.848129 -18.507591 -45.416615 -12.717244 -1.352342 11.764184 -54.677898 -22.474949 12.238700 3.194873 
-212.710190 120.477783 435.636292 0.000000 -8.372717 0.000000 91.206688 -6.481837 89.755333 170.316147 -4.082233 149.460770 -2.465615 3.374741 -55.171108 -5.597254 -0.394194 83.042870 0.000009 0.003100 21.482897 -169.578629 6.471336 149.547638 1.391682 -3.980916 -55.943905 4.692403 -0.252848 84.314026 -0.000010 -0.003100 21.482502 0.008418 -0.025430 8.488649 -0.451432 0.417540 6.235925 0.404467 -0.102540 6.430897 0.418120 -0.467614 3.421325 -0.861611 2.316519 -7.884587 2.984787 -79.473808 175.640182 24.031809 48.037239 -6.362323 2.063323 -12.249050 -53.609467 21.479078 -10.313531 4.727557 6.574430 79.117409 -174.875366 -18.484377 -45.402084 -12.685149 -1.372674 11.807989 -54.719856 -22.584915 12.239012 3.173447 
-212.898987 120.395149 437.051117 0.000000 -8.417026 0.000000 91.253807 -6.630534 89.810417 170.243195 -4.058695 149.540054 -2.398075 3.365197 -55.307198 -5.556130 -0.394832 83.113731 0.000009 0.003100 21.482784 -169.669037 6.610734 149.558670 1.297434 -3.957210 -55.932598 4.730898 -0.244755 84.400612 -0.000010 -0.003100 21.482601 0.016277 -0.034479 8.487062 -0.427972 0.394734 6.280272 0.394359 -0.113237 6.460394 0.415022 -0.470434 3.493491 -0.717294 2.159186 -7.897186 3.265472 -79.522522 175.342819 24.057373 47.906757 -6.485915 2.022677 -12.234401 -53.572643 21.386875 -10.273775 4.709259 6.429575 79.090363 -175.027374 -18.461100 -45.386364 -12.620304 -1.400625 11.818589 -54.779152 -22.731617 12.200353 3.169291 
-213.088943 120.314667 438.479279 0.000000 -8.467138 0.000000 88.705750 -6.644174 86.647835 170.144989 -4.050074 149.595520 -2.320030 3.355389 -55.381329 -5.516096 -0.383000 83.121407 0.000009 0.003100 21.482674 -169.737579 6.704050 149.585144 1.214786 -3.943678 -55.925400 4.773297 -0.246801 84.449028 -0.000010 -0.003100 21.482714 0.023402 -0.036968 8.480597 -0.404164 0.368849 6.311064 0.393005 -0.125469 6.489273 0.374530 -0.451995 3.565568 -0.555852 2.009416 -7.901428 3.592200 -79.554306 174.993469 24.097893 47.785633 -6.588550 1.997380 -12.199927 -53.539768 21.323578 -10.261590 4.668957 6.372572 79.035545 -175.091232 -18.455162 -45.335217 -12.571563 -1.407749 11.841774 -54.766674 -22.855522 12.193620 3.155359 
-213.280075 120.235992 439.916290 0.000000 -8.520819 0.000000 88.729675 -6.729804 86.625374 170.036087 -4.050656 149.603394 -2.229157 3.342587 -55.465950 -5.439811 -0.368362 83.147224 0.000009 0.003100 21.482536 -169.744431 6.770062 149.676285 1.108644 -3.928386 -55.878372 4.822520 -0.249230 84.480354 -0.000010 -0.003100 21.482859 0.033431 -0.034780 8.475566 -0.380431 0.350980 6.347092 0.383458 -0.140392 6.513198 0.325035 -0.414265 3.630774 -0.356778 1.877417 -7.899563 3.799044 -79.568748 174.763458 24.113752 47.703747 -6.705047 1.958789 -12.158916 -53.488876 21.266878 -10.278668 4.653558 6.486257 78.975586 -174.987854 -18.517923 -45.257942 -12.456465 -1.407050 11.876022 -54.738388 -22.972744 12.187246 3.119712 
-213.471405 120.157555 441.363861 0.000000 -8.574022 0.000000 88.748360 -6.872401 86.593369 169.924728 -4.043138 149.625687 -2.135706 3.317529 -55.557930 -5.360441 -0.386211 83.195068 0.000010 0.003100 21.482454 -169.660446 6.833079 149.820114 1.006522 -3.911571 -55.869030 4.880761 -0.241375 84.506523 -0.000010 -0.003100 21.483040 0.041682 -0.020611 8.471260 -0.358988 0.346913 6.381887 0.369466 -0.136587 6.537383 0.291747 -0.382960 3.670692 -0.175453 1.703198 -7.884003 3.809929 -79.550034 174.728424 24.086226 47.631298 -6.909897 1.925224 -12.096740 -53.484161 21.227493 -10.290064 4.655896 6.552370 78.904976 -174.935715 -18.522024 -45.201469 -12.301991 -1.376179 11.909122 -54.630749 -23.082514 12.124204 3.074158 
-213.661316 120.075523 442.821747 0.000000 -8.628517 0.000000 88.776031 -7.006485 86.559692 169.842209 -4.027455 149.575226 -2.056950 3.291584 -55.648647 -5.282937 -0.415532 83.275604 0.000010 0.003100 21.482420 -169.531342 6.851935 150.015839 0.879725 -3.887592 -55.880302 4.893296 -0.232005 84.520714 -0.000010 -0.003100 21.483210 0.049886 -0.006989 8.455641 -0.327740 0.348948 6.405668 0.352411 -0.154222 6.562846 0.271209 -0.370823 3.783361 -0.071153 1.525504 -7.837416 3.677663 -79.495750 174.832809 24.167280 47.561607 -7.086162 1.900733 -12.008399 -53.484982 21.190079 -10.315106 4.659701 6.745050 78.851006 -174.752579 -18.615791 -45.121838 -12.061963 -1.344324 11.965028 -54.451050 -23.184612 12.065470 3.078050 
-213.851089 119.987465 444.285645 0.000000 -8.679391 0.000000 88.792572 -6.962685 86.525833 169.765839 -4.045022 149.330215 -2.032863 3.261430 -55.719589 -5.248977 -0.348235 83.294197 0.000010 0.003100 21.482395 -169.371658 6.739577 150.274887 0.758108 -3.868149 -55.864311 4.902494 -0.194599 84.454155 -0.000010 -0.003100 21.483229 0.061791 -0.002070 8.422398 -0.288562 0.333938 6.388371 0.330625 -0.207793 6.590894 0.222588 -0.320877 3.957779 0.030947 1.425811 -7.850152 3.181983 -79.448402 175.300735 24.615150 47.534489 -6.921188 1.864266 -11.867266 -53.392353 21.199091 -10.504532 4.637467 6.998630 78.794380 -174.503525 -18.903534 -44.896317 -11.804775 -1.303203 12.101725 -54.177624 -23.185652 12.134770 3.118788 
-214.041061 119.893311 445.740112 0.000000 -8.718144 0.000000 88.830894 -6.932730 86.493103 169.668488 -4.041987 149.099808 -1.991752 3.226306 -55.814854 -5.253759 -0.270771 83.299019 0.000010 0.003100 21.482388 -169.201340 6.631594 150.565460 0.690625 -3.847800 -55.956146 4.915524 -0.166053 84.332230 -0.000010 -0.003100 21.483360 0.074720 0.009234 8.391630 -0.239857 0.327782 6.352326 0.311974 -0.257442 6.628199 0.168664 -0.259624 4.060111 0.075718 1.370189 -7.857867 2.632034 -79.400726 175.823792 25.045696 47.513306 -6.724989 1.820160 -11.726234 -53.292744 21.213154 -10.692536 4.628419 7.290204 78.745720 -174.219131 -19.308437 -44.687946 -11.381588 -1.261847 12.233192 -53.847378 -23.167526 12.156389 3.171719 
